<svg xmlns="http://www.w3.org/2000/svg" version="1.1" xmlns:xlink="http://www.w3.org/1999/xlink" width="2000" height="1500" viewBox="0 0 2000 1500"><rect width="2000" height="1500" x="0" y="0" id="background" stroke="transparent" fill="#ffffff"></rect><svg xml:space="preserve" width="1500" height="1125" data-version="2" data-id="lg_FR8VULhdW5ztXZsTIv" viewBox="0 0 429 571" x="250" y="187.5"><rect width="100%" height="100%" fill="transparent"></rect><path fill="#1c1c1c" d="M209.992 6.732 69.32 45.932v9.184c0 9.912-29.736 27.776-56.448 37.52L4.024 95.94v213.864c0 70.952 35.448 137.368 102.48 191.968a425.6 425.6 0 0 0 101.976 61.376l5.992 2.352 5.992-2.352c2.072-.84 51.744-20.552 101.92-61.376 67.088-54.6 102.592-120.96 102.592-191.968V95.884l-8.904-3.136c-26.712-9.8-56.448-27.664-56.448-37.576v-9.24L214.472 5.5z"></path><path fill="none" stroke="#ffffff" stroke-width="2" d="m49.2.22-25.12 7v1.64c0 1.77-5.31 4.96-10.08 6.7l-1.58.59v38.19c0 12.67 6.33 24.53 18.3 34.28a76 76 0 0 0 18.21 10.96L50 100l1.07-.42c.37-.15 9.24-3.67 18.2-10.96 11.98-9.75 18.32-21.6 18.32-34.28v-38.2L86 15.58c-4.77-1.75-10.08-4.94-10.08-6.71V7.22L50 0z" paint-order="stroke" transform="matrix(5.2527 0 0 5.3374 -48.161 18.825)"></path><path fill="#ffffff" d="M128.88 167.5h-8.62v-39.26h8.62zm-21.71 0h-8.62v-39.26h8.62zm14.5-16.28h-17.04v-7.73h17.06zm30.8 17.09q-4.91 0-8.93-2.38-4.03-2.38-6.4-6.99-2.38-4.62-2.38-11.32 0-6.48 2.28-10.98 2.28-4.51 6.28-6.85 4-2.33 9.18-2.33 5.08 0 9.09 2.33 4.01 2.34 6.34 6.85 2.34 4.5 2.34 10.98 0 6.7-2.33 11.32-2.32 4.61-6.33 6.99t-9.14 2.38m0-7.86q2.7 0 4.73-1.38 2.02-1.37 3.17-4.2 1.15-2.82 1.15-7.16 0-4.11-1.14-6.86-1.13-2.76-3.17-4.15-2.04-1.39-4.71-1.39-2.54 0-4.58 1.39-2.03 1.39-3.21 4.15-1.17 2.75-1.17 6.86 0 3.26.67 5.67.68 2.4 1.89 3.96 1.22 1.57 2.85 2.34 1.63.77 3.52.77m54.46 7.05h-10.12l-8.45-15.1h-4.16l-1.81-.4.78-5.4v-.87h5.7q1.89 0 3.04-.64 1.14-.65 1.66-1.83.51-1.17.51-2.76 0-1.97-.7-2.97-.7-1-1.85-1.37-1.15-.36-2.55-.36l-4.3-.03-1.89-3.05-.43-4.48h7.72q3.78 0 6.66 1.27 2.88 1.27 4.5 3.83 1.62 2.57 1.62 6.43 0 2.99-1.14 5.6-1.13 2.61-3.54 4.24-2.4 1.63-6.21 1.79l1.08-.43q1.06 0 1.95.19.89.19 1.65.7.75.52 1.35 1.46zm-22.22 0h-8.56v-39.26h8.56zm34.24 0h-8.67v-39.26h8.67zm33.88 0h-29.08l15.64-29.43 2.29-2.62-3.27.21h-12.77v-7.42h28.06l-15.37 29.64-1.78 2.35 3.92-.19h12.36zm22.01.81q-4.92 0-8.94-2.38t-6.4-6.99q-2.37-4.62-2.37-11.32 0-6.48 2.28-10.98 2.28-4.51 6.27-6.85 4-2.33 9.18-2.33 5.08 0 9.09 2.33 4.01 2.34 6.35 6.85 2.33 4.5 2.33 10.98 0 6.7-2.32 11.32-2.32 4.61-6.33 6.99t-9.14 2.38m0-7.86q2.7 0 4.72-1.38 2.03-1.37 3.18-4.2 1.14-2.82 1.14-7.16 0-4.11-1.13-6.86-1.14-2.76-3.17-4.15-2.04-1.39-4.72-1.39-2.53 0-4.57 1.39-2.04 1.39-3.21 4.15-1.18 2.75-1.18 6.86 0 3.26.68 5.67.67 2.4 1.89 3.96 1.21 1.57 2.84 2.34 1.64.77 3.53.77m32.02 7.05h-8.34v-39.26h10.96l11.31 23.33 3 8.2h.19l-1.14-10.07v-21.46h8.35v39.26h-11.05l-11.26-23.33-2.83-7.48h-.27l1.08 11.66zM77.74 216.24q-4.65 0-8.09-1.85-3.44-1.85-5.34-5.34-1.91-3.5-1.91-8.41v-24.2h8.67v23.2q0 2.27.42 3.94t1.27 2.79q.85 1.12 2.1 1.66 1.26.54 2.93.54 1.65 0 2.88-.54t2.05-1.64q.82-1.11 1.24-2.8.42-1.68.42-3.95v-23.2h8.67v24.2q0 4.83-1.89 8.34t-5.32 5.39q-3.43 1.87-8.1 1.87m30.45-.54h-8.34v-39.26h10.96l11.32 23.33 2.99 8.21h.19l-1.13-10.07v-21.47h8.34v39.26h-11.04l-11.26-23.33-2.84-7.47h-.27l1.08 11.66zm40.26 0h-8.67v-39.26h8.67zm27.24 0h-11.55l-11.45-39.26h9.37l5.72 22.9 2.05 9.13h.19l2-9.13 5.75-22.9h9.37zm40.42 0h-24.54v-39.26h24.06v7.75H197.4l2.62-1.99v11.25l-2.62-1.7h16.42v7.73h-16.15l2.35-1.68v12.12l-2.62-2.02h18.71zm36.53 0h-10.12l-8.45-15.09h-4.16l-1.81-.41.78-5.4v-.86h5.7q1.89 0 3.04-.65 1.15-.65 1.66-1.82t.51-2.77q0-1.97-.7-2.97-.7-1-1.85-1.36-1.15-.37-2.55-.37l-4.29-.02-1.89-3.05-.44-4.49h7.73q3.78 0 6.65 1.27 2.88 1.27 4.5 3.84 1.62 2.56 1.62 6.42 0 3-1.14 5.61-1.13 2.6-3.53 4.23-2.41 1.64-6.21 1.8l1.08-.43q1.05 0 1.94.19.89.19 1.65.7.75.51 1.35 1.46zm-22.22 0h-8.56v-39.26h8.56zm38.94.54q-4.51 0-8.12-1.42-3.6-1.41-5.63-4.38-2.02-2.97-1.86-7.59h8.37q.05 1.94.81 3.32t2.38 2.09q1.62.72 4.21.72 2.1 0 3.45-.43t1.99-1.29q.63-.85.63-2.09 0-1.37-.86-2.28-.86-.9-2.71-1.69-1.85-.78-4.77-1.78-3.62-1.29-6.33-2.91t-4.2-3.97q-1.48-2.35-1.48-5.78 0-5.35 3.71-8.14 3.71-2.8 10.08-2.8 4.35 0 7.27 1.37 2.91 1.36 4.46 4.06 1.56 2.7 1.83 6.7h-8.21q-.06-1.57-.66-2.65-.61-1.08-1.77-1.65-1.16-.56-2.89-.56-2.62 0-4 .85-1.37.85-1.37 2.68 0 1.38.63 2.34.64.96 2.2 1.79 1.57.84 4.35 1.87 2.59.94 4.98 1.85 2.39.9 4.28 2.13 1.89 1.23 2.98 3.09 1.1 1.86 1.1 4.75.02 5.89-4.03 8.85-4.05 2.95-10.82 2.95m28.18-.54h-8.66v-39.26h8.66zm23.31 0h-8.59v-28.24q0-1.62.59-2.35.6-.73 1.81-.92h-12.09v-7.75h27.91v7.75h-9.63zm33.04-12.23h-8.5L332 176.44h9.72l4.78 11.67 2.97 6.99h.32l3-6.96 4.78-11.7h9.72zm.06 12.23h-8.64v-17.41h8.64zM179.41 74.17q-1.66 0-2.83-.66-1.17-.66-1.79-1.91-.62-1.26-.62-3.04 0-1.84.66-3.1.66-1.27 1.86-1.92 1.2-.65 2.81-.65 1.56 0 2.62.59 1.07.59 1.62 1.74t.55 2.83q0 .21-.02.49-.01.27-.03.62h-7.02q.11 1.36.66 1.99.55.62 1.54.62.82 0 1.24-.36.43-.36.51-.95h2.98q-.09 1.13-.69 1.97-.59.83-1.62 1.29-1.03.45-2.43.45m-.92-6.76h2.81q-.04-1.05-.51-1.57-.46-.52-1.42-.52-1.13 0-1.65.81-.52.8-.53 2.28.08-.57.39-.78.31-.22.91-.22m11.47 6.78q-1.41 0-2.43-.41-1.01-.41-1.57-1.24-.56-.84-.62-2.13h3.03q.09.8.51 1.18.43.38 1.15.38.36 0 .69-.08.33-.09.54-.3.21-.22.21-.6 0-.31-.16-.5-.15-.2-.45-.33-.29-.14-.71-.25-.42-.12-.95-.28-.94-.28-1.76-.68-.81-.4-1.31-1.07t-.5-1.76q0-1.63 1.19-2.42 1.2-.79 3.14-.79 1.14 0 2.05.31.91.31 1.5 1.1.6.79.77 2.23l-3.01-.02q-.09-.64-.31-.95-.22-.32-.5-.42-.28-.11-.58-.11-.34 0-.62.11-.27.11-.43.32-.16.21-.16.53 0 .38.24.65t.73.48q.49.2 1.25.41.5.13 1.12.32.63.19 1.2.53.58.34.95.92.38.58.38 1.5 0 1.6-1.23 2.49-1.23.88-3.35.88m9.92-.04q-1.35 0-2.1-.68-.75-.69-.76-2.13l-.03-4.88q0-.38.21-.62.22-.24.61-.31l-.82-1.99v-.33l.57-3.23h2.53v10.4q0 .7.17.97.18.27.68.27t.83-.02q.34-.02.64-.07v2.45q-.36.13-1.08.15-.71.02-1.45.02m2.46-8.62h-6.51v-2.42h6.51zm3.15 8.64q-.72 0-1.23-.52-.51-.53-.51-1.36 0-.82.51-1.34.51-.52 1.23-.52t1.23.52q.51.52.51 1.34 0 .83-.51 1.36-.51.52-1.23.52m12.88-.15h-3.27l.02-11.92.8-2.62h2.45zm-6.23-10.08v-3q.48 0 1.04-.05.56-.06 1.03-.19.46-.14.92-.42.46-.28.79-.8l-.77 2.6q-.1.46-.25.86-.14.4-.67.69-.37.2-.79.26-.41.05-1.3.05m14.45 10.08h-4.17q.49-.37 1.16-.97.68-.6 1.4-1.36.72-.77 1.34-1.63.63-.87 1.02-1.78.4-.91.41-1.79l.12-.01q-.11.32-.32.81-.2.48-.57.96-.37.48-.98.8-.6.32-1.52.32-1.12 0-2.04-.54-.91-.55-1.46-1.64-.54-1.09-.54-2.72 0-1.16.4-2.11.41-.96 1.12-1.65.72-.7 1.64-1.07.93-.38 1.98-.38 1.48 0 2.66.71 1.18.71 1.87 2.08.69 1.36.69 3.35 0 1.58-.46 2.99-.46 1.4-1.15 2.55-.68 1.14-1.39 1.94-.71.79-1.21 1.14m-1.1-6.97q.53 0 .93-.1.41-.1.71-.29.31-.19.54-.46.09-.2.1-.63.02-.44.02-.64 0-.79-.25-1.44-.24-.65-.73-1.04-.48-.39-1.21-.39-.71 0-1.17.33-.46.33-.68.87-.22.54-.22 1.19 0 1.25.53 1.93.54.67 1.43.67m12.66 6.97h-4.17q.49-.37 1.16-.97.68-.6 1.4-1.36.72-.77 1.34-1.63.63-.87 1.02-1.78.4-.91.41-1.79l.12-.01q-.11.32-.32.81-.2.48-.57.96-.37.48-.98.8-.6.32-1.52.32-1.12 0-2.04-.54-.91-.55-1.46-1.64-.54-1.09-.54-2.72 0-1.16.4-2.11.41-.96 1.12-1.65.72-.7 1.64-1.07.93-.38 1.98-.38 1.48 0 2.66.71 1.18.71 1.87 2.08.69 1.36.69 3.35 0 1.58-.46 2.99-.46 1.4-1.15 2.55-.68 1.14-1.39 1.94-.71.79-1.21 1.14m-1.1-6.97q.53 0 .93-.1.41-.1.71-.29.31-.19.54-.46.09-.2.1-.63.02-.44.02-.64 0-.79-.25-1.44-.24-.65-.73-1.04-.48-.39-1.21-.39-.71 0-1.17.33-.46.33-.68.87-.22.54-.22 1.19 0 1.25.53 1.93.54.67 1.43.67m12.66 6.97h-4.17q.49-.37 1.16-.97.68-.6 1.4-1.36.72-.77 1.34-1.63.63-.87 1.02-1.78.4-.91.41-1.79l.12-.01q-.11.32-.32.81-.2.48-.57.96-.37.48-.98.8-.6.32-1.52.32-1.12 0-2.04-.54-.91-.55-1.46-1.64-.54-1.09-.54-2.72 0-1.16.4-2.11.41-.96 1.12-1.65.72-.7 1.64-1.07.93-.38 1.98-.38 1.48 0 2.66.71 1.18.71 1.87 2.08.69 1.36.69 3.35 0 1.58-.46 2.99-.46 1.4-1.15 2.55-.68 1.14-1.39 1.94-.71.79-1.21 1.14m-1.1-6.97q.53 0 .93-.1.41-.1.71-.29.31-.19.54-.46.09-.2.1-.63.02-.44.02-.64 0-.79-.25-1.44-.24-.65-.73-1.04-.48-.39-1.21-.39-.71 0-1.17.33-.46.33-.68.87-.22.54-.22 1.19 0 1.25.53 1.93.54.67 1.43.67m-35.516 221.465 71.021 44.355H142.098zm0-11.155-103.96 64.959h207.92zm-79.184 86.796h18.897v92.753H133.91zm34.88 0h18.898v92.753H168.79zm34.855 0h18.897v92.753h-18.897zm34.881 0h18.897v92.753h-18.897zm34.855 0h18.897v92.753H273.38zm-148.684-15.617H301.49v9.449H124.697zm0 114.564H301.49v9.449H124.697zm-11.732 15.538h200.231v9.448h-200.23z"></path><circle r="4.31" fill="#ffffff" transform="translate(213.094 309.853)scale(2.6246)"></circle><path stroke="#ffffff" stroke-width="1.694" d="M87.17 106.043h255.09M89.989 242.316h255.088"></path></svg></svg>